{"title":"Lady Dynamite S01E07 720p WEBRip x264","uid":14662918,"size":388414161,"categoryP":"video","categoryS":"hd___tv_shows","magnet":"?xt=urn:btih:38cc83c734ea43fe0ccd29eea1d4bf2f1ff9d819&amp;dn=Lady+Dynamite+S01E07+720p+WEBRip+x264&amp;tr=udp%3A%2F%2Ftracker.leechers-paradise.org%3A6969&amp;tr=udp%3A%2F%2Fzer0day.ch%3A1337&amp;tr=udp%3A%2F%2Fopen.demonii.com%3A1337&amp;tr=udp%3A%2F%2Ftracker.coppersurfer.tk%3A6969&amp;tr=udp%3A%2F%2Fexodus.desync.com%3A6969","seeders":10,"leechers":0,"uploader":"TheRival","files":1,"time":1463782566,"description":"Screens: \nhttp://extraimago.com/image/aMvO\r\n\r\nVideo\r\nID                                       : 1\r\nFormat                                   : AVC\r\nFormat/Info                              : Advanced Video Codec\r\nFormat profile                           :   \r\nFormat settings, CABAC                   : Yes\r\nFormat settings, ReFrames                : 1 frame\r\nFormat settings, GOP                     : M=3, N=24\r\nMuxing mode                              : Container   \r\nCodec ID                                 : avc1\r\nCodec ID/Info                            : Advanced Video Coding\r\nDuration                                 : 24mn 47s\r\nBit rate mode                            : Variable\r\nBit rate                                 : 1 955 Kbps\r\nMaximum bit rate                         : 3 000 Kbps\r\nWidth                                    : 1 280 pixels\r\nHeight                                   : 720 pixels\r\nDisplay aspect ratio                     : 16:9\r\nFrame rate mode                          : Constant\r\nFrame rate                               : 25.000 fps\r\nColor space                              : YUV\r\nChroma subsampling                       : 4:2:0\r\nBit depth                                : 8 bits\r\nScan type                                : Progressive\r\nBits/(Pixel*Frame)                       : 0.085\r\nStream size                              : 347 MiB (94%)\r\nLanguage                                 : English\r\n\r\nAudio\r\nID                                       : 2\r\nFormat                                   : AAC\r\nFormat/Info                              : Advanced Audio Codec\r\nFormat profile                           : LC\r\nCodec ID                                 : 40\r\nDuration                                 : 24mn 47s\r\nBit rate mode                            : Constant\r\nBit rate                                 : 128 Kbps\r\nChannel(s)                               : 2 channels\r\nChannel positions                        : Front: L R\r\nSampling rate                            : 48.0 KHz\r\nFrame rate                               : 46.875 fps (1024 spf)\r\nCompression mode                         : Lossy\r\nStream size                              : 22.7 MiB (6%)\r\nTitle                                    : Stereo\r\nLanguage                                 : English\r\nDefault                                  : Yes\r\nAlternate group                          : 1","torrent":{"xt":"urn:btih:38cc83c734ea43fe0ccd29eea1d4bf2f1ff9d819","amp;dn":"Lady+Dynamite+S01E07+720p+WEBRip+x264","amp;tr":["udp%3A%2F%2Ftracker.leechers-paradise.org%3A6969","udp%3A%2F%2Fzer0day.ch%3A1337","udp%3A%2F%2Fopen.demonii.com%3A1337","udp%3A%2F%2Ftracker.coppersurfer.tk%3A6969","udp%3A%2F%2Fexodus.desync.com%3A6969"],"infoHash":"38cc83c734ea43fe0ccd29eea1d4bf2f1ff9d819","infoHashBuffer":{"type":"Buffer","data":[56,204,131,199,52,234,67,254,12,205,41,238,161,212,191,47,31,249,216,25]},"announce":[],"urlList":[]}}